# xmcd CD database file
#
# Track frame offsets:
#	150
#	23355
#	39754
#	56041
#	86062
#	109900
#	141195
#	169266
#
# Disc length: 2542 seconds
#
# Revision: 0
# Processed by: cddbd v1.4PL0 Copyright (c) Steve Scherf et al.
# Submitted via: CDex 1.40Release
#
DISCID=6009ec08
DTITLE=Matt Thorpe - Blues Frets
DYEAR=2000
DGENRE=Blues
TTITLE0=Blues Won't Leave Me Tonight
TTITLE1=Shuffle in the Nineties
TTITLE2=Low and Then Some
TTITLE3=Certain Blues
TTITLE4=Coloratura
TTITLE5=New Blues
TTITLE6=So Cool
TTITLE7=No Name
EXTD=YEAR: 2000 ID3G: 0
EXTT0=
EXTT1=
EXTT2=
EXTT3=
EXTT4=
EXTT5=
EXTT6=
EXTT7=
PLAYORDER=
